P3
50 50
255
66 66 0 37 37 0 44 44 0 48 48 0 39 39 0 16 16 0 17 17 0 7 7 0 5 5 0 20 20 0 23 23 0 16 16 0 13 13 0 14 14 0 19 19 0 40 40 0 48 48 0 60 60 0 63 63 0 65 65 0 105 105 0 118 118 0 105 105 0 115 115 0 173 173 0 180 180 0 173 173 0 115 115 0 105 105 0 118 118 0 105 105 0 65 65 0 63 63 0 60 60 0 48 48 0 40 40 0 19 19 0 14 14 0 13 13 0 16 16 0 23 23 0 20 20 0 5 5 0 7 7 0 17 17 0 16 16 0 39 39 0 48 48 0 44 44 0 37 37 0 
37 37 0 33 33 0 23 23 0 28 28 0 17 17 0 13 13 0 16 16 0 1 1 0 5 5 0 14 14 0 17 17 0 10 10 0 3 3 0 11 11 0 8 8 0 23 23 0 42 42 0 27 27 0 33 33 0 55 55 0 104 104 0 85 85 0 130 130 0 104 104 0 102 102 0 141 141 0 102 102 0 104 104 0 130 130 0 85 85 0 104 104 0 55 55 0 33 33 0 27 27 0 42 42 0 23 23 0 8 8 0 11 11 0 3 3 0 10 10 0 17 17 0 14 14 0 5 5 0 1 1 0 16 16 0 13 13 0 17 17 0 28 28 0 23 23 0 33 33 0 
44 44 0 23 23 0 18 18 0 14 14 0 17 17 0 15 15 0 5 5 0 0 0 0 3 3 0 23 23 0 25 25 0 9 9 0 3 3 0 1 1 0 8 8 0 19 19 0 26 26 0 38 38 0 27 27 0 49 49 0 69 69 0 108 108 0 105 105 0 131 131 0 142 142 0 106 106 0 142 142 0 131 131 0 105 105 0 108 108 0 69 69 0 49 49 0 27 27 0 38 38 0 26 26 0 19 19 0 8 8 0 1 1 0 3 3 0 9 9 0 25 25 0 23 23 0 3 3 0 0 0 0 5 5 0 15 15 0 17 17 0 14 14 0 18 18 0 23 23 0 
48 48 0 28 28 0 14 14 0 17 17 0 18 18 0 9 9 0 0 0 0 4 4 0 6 6 0 0 0 0 2 2 0 9 9 0 4 4 0 3 3 0 12 12 0 19 19 0 25 25 0 28 28 0 36 36 0 48 48 0 53 53 0 68 68 0 59 59 0 91 91 0 101 101 0 68 68 0 101 101 0 91 91 0 59 59 0 68 68 0 53 53 0 48 48 0 36 36 0 28 28 0 25 25 0 19 19 0 12 12 0 3 3 0 4 4 0 9 9 0 2 2 0 0 0 0 6 6 0 4 4 0 0 0 0 9 9 0 18 18 0 17 17 0 14 14 0 28 28 0 
39 39 0 17 17 0 17 17 0 18 18 0 23 23 0 16 16 0 7 7 0 1 1 0 3 3 0 9 9 0 10 10 0 7 7 0 5 5 0 5 5 0 15 15 0 28 28 0 23 23 0 21 21 0 23 23 0 43 43 0 59 59 0 62 62 0 30 30 0 63 63 0 50 50 0 29 29 0 50 50 0 63 63 0 30 30 0 62 62 0 59 59 0 43 43 0 23 23 0 21 21 0 23 23 0 28 28 0 15 15 0 5 5 0 5 5 0 7 7 0 10 10 0 9 9 0 3 3 0 1 1 0 7 7 0 16 16 0 23 23 0 18 18 0 17 17 0 17 17 0 
16 16 0 13 13 0 15 15 0 9 9 0 16 16 0 4 4 0 20 20 0 2 2 0 3 3 0 15 15 0 17 17 0 7 7 0 2 2 0 14 14 0 5 5 0 20 20 0 12 12 0 10 10 0 10 10 0 19 19 0 17 17 0 21 21 0 46 46 0 31 31 0 27 27 0 37 37 0 27 27 0 31 31 0 46 46 0 21 21 0 17 17 0 19 19 0 10 10 0 10 10 0 12 12 0 20 20 0 5 5 0 14 14 0 2 2 0 7 7 0 17 17 0 15 15 0 3 3 0 2 2 0 20 20 0 4 4 0 16 16 0 9 9 0 15 15 0 13 13 0 
17 17 0 16 16 0 5 5 0 0 0 0 7 7 0 20 20 0 5 5 0 0 0 0 2 2 0 8 8 0 9 9 0 4 4 0 1 1 0 2 2 0 16 16 0 8 8 0 3 3 0 2 2 0 12 12 0 18 18 0 3 3 0 4 4 0 3 3 0 11 11 0 12 12 0 5 5 0 12 12 0 11 11 0 3 3 0 4 4 0 3 3 0 18 18 0 12 12 0 2 2 0 3 3 0 8 8 0 16 16 0 2 2 0 1 1 0 4 4 0 9 9 0 8 8 0 2 2 0 0 0 0 5 5 0 20 20 0 7 7 0 0 0 0 5 5 0 16 16 0 
7 7 0 1 1 0 0 0 0 4 4 0 1 1 0 2 2 0 0 0 0 6 6 0 2 2 0 1 1 0 2 2 0 2 2 0 3 3 0 1 1 0 3 3 0 2 2 0 4 4 0 1 1 0 2 2 0 11 11 0 24 24 0 9 9 0 7 7 0 17 17 0 12 12 0 9 9 0 12 12 0 17 17 0 7 7 0 9 9 0 24 24 0 11 11 0 2 2 0 1 1 0 4 4 0 2 2 0 3 3 0 1 1 0 3 3 0 2 2 0 2 2 0 1 1 0 2 2 0 6 6 0 0 0 0 2 2 0 1 1 0 4 4 0 0 0 0 1 1 0 
5 5 0 5 5 0 3 3 0 6 6 0 3 3 0 3 3 0 2 2 0 2 2 0 3 3 0 2 2 0 3 3 0 4 4 0 2 2 0 1 1 0 3 3 0 5 5 0 11 11 0 5 5 0 4 4 0 12 12 0 7 7 0 17 17 0 12 12 0 16 16 0 21 21 0 14 14 0 21 21 0 16 16 0 12 12 0 17 17 0 7 7 0 12 12 0 4 4 0 5 5 0 11 11 0 5 5 0 3 3 0 1 1 0 2 2 0 4 4 0 3 3 0 2 2 0 3 3 0 2 2 0 2 2 0 3 3 0 3 3 0 6 6 0 3 3 0 5 5 0 
20 20 0 14 14 0 23 23 0 0 0 0 9 9 0 15 15 0 8 8 0 1 1 0 2 2 0 4 4 0 5 5 0 3 3 0 0 0 0 7 7 0 18 18 0 13 13 0 0 0 0 22 22 0 18 18 0 25 25 0 12 12 0 21 21 0 34 34 0 14 14 0 14 14 0 39 39 0 14 14 0 14 14 0 34 34 0 21 21 0 12 12 0 25 25 0 18 18 0 22 22 0 0 0 0 13 13 0 18 18 0 7 7 0 0 0 0 3 3 0 5 5 0 4 4 0 2 2 0 1 1 0 8 8 0 15 15 0 9 9 0 0 0 0 23 23 0 14 14 0 
23 23 0 17 17 0 25 25 0 2 2 0 10 10 0 17 17 0 9 9 0 2 2 0 3 3 0 5 5 0 6 6 0 4 4 0 1 1 0 8 8 0 18 18 0 14 14 0 1 1 0 23 23 0 18 18 0 26 26 0 10 10 0 23 23 0 37 37 0 15 15 0 16 16 0 42 42 0 16 16 0 15 15 0 37 37 0 23 23 0 10 10 0 26 26 0 18 18 0 23 23 0 1 1 0 14 14 0 18 18 0 8 8 0 1 1 0 4 4 0 6 6 0 5 5 0 3 3 0 2 2 0 9 9 0 17 17 0 10 10 0 2 2 0 25 25 0 17 17 0 
16 16 0 10 10 0 9 9 0 9 9 0 7 7 0 7 7 0 4 4 0 2 2 0 4 4 0 3 3 0 4 4 0 6 6 0 1 1 0 2 2 0 6 6 0 7 7 0 10 10 0 6 6 0 7 7 0 16 16 0 9 9 0 22 22 0 16 16 0 19 19 0 24 24 0 19 19 0 24 24 0 19 19 0 16 16 0 22 22 0 9 9 0 16 16 0 7 7 0 6 6 0 10 10 0 7 7 0 6 6 0 2 2 0 1 1 0 6 6 0 4 4 0 3 3 0 4 4 0 2 2 0 4 4 0 7 7 0 7 7 0 9 9 0 9 9 0 10 10 0 
13 13 0 3 3 0 3 3 0 4 4 0 5 5 0 2 2 0 1 1 0 3 3 0 2 2 0 0 0 0 1 1 0 1 1 0 3 3 0 1 1 0 3 3 0 3 3 0 4 4 0 2 2 0 3 3 0 12 12 0 28 28 0 13 13 0 8 8 0 22 22 0 17 17 0 10 10 0 17 17 0 22 22 0 8 8 0 13 13 0 28 28 0 12 12 0 3 3 0 2 2 0 4 4 0 3 3 0 3 3 0 1 1 0 3 3 0 1 1 0 1 1 0 0 0 0 2 2 0 3 3 0 1 1 0 2 2 0 5 5 0 4 4 0 3 3 0 3 3 0 
14 14 0 11 11 0 1 1 0 3 3 0 5 5 0 14 14 0 2 2 0 1 1 0 1 1 0 7 7 0 8 8 0 2 2 0 1 1 0 2 2 0 14 14 0 6 6 0 4 4 0 1 1 0 11 11 0 16 16 0 3 3 0 5 5 0 4 4 0 16 16 0 18 18 0 4 4 0 18 18 0 16 16 0 4 4 0 5 5 0 3 3 0 16 16 0 11 11 0 1 1 0 4 4 0 6 6 0 14 14 0 2 2 0 1 1 0 2 2 0 8 8 0 7 7 0 1 1 0 1 1 0 2 2 0 14 14 0 5 5 0 3 3 0 1 1 0 11 11 0 
19 19 0 8 8 0 8 8 0 12 12 0 15 15 0 5 5 0 16 16 0 3 3 0 3 3 0 18 18 0 18 18 0 6 6 0 3 3 0 14 14 0 5 5 0 19 19 0 12 12 0 8 8 0 9 9 0 20 20 0 16 16 0 20 20 0 49 49 0 32 32 0 26 26 0 39 39 0 26 26 0 32 32 0 49 49 0 20 20 0 16 16 0 20 20 0 9 9 0 8 8 0 12 12 0 19 19 0 5 5 0 14 14 0 3 3 0 6 6 0 18 18 0 18 18 0 3 3 0 3 3 0 16 16 0 5 5 0 15 15 0 12 12 0 8 8 0 8 8 0 
40 40 0 23 23 0 19 19 0 19 19 0 28 28 0 20 20 0 8 8 0 2 2 0 5 5 0 13 13 0 14 14 0 7 7 0 3 3 0 6 6 0 19 19 0 30 30 0 20 20 0 20 20 0 26 26 0 44 44 0 60 60 0 59 59 0 28 28 0 61 61 0 49 49 0 31 31 0 49 49 0 61 61 0 28 28 0 59 59 0 60 60 0 44 44 0 26 26 0 20 20 0 20 20 0 30 30 0 19 19 0 6 6 0 3 3 0 7 7 0 14 14 0 13 13 0 5 5 0 2 2 0 8 8 0 20 20 0 28 28 0 19 19 0 19 19 0 23 23 0 
48 48 0 42 42 0 26 26 0 25 25 0 23 23 0 12 12 0 3 3 0 4 4 0 11 11 0 0 0 0 1 1 0 10 10 0 4 4 0 4 4 0 12 12 0 20 20 0 27 27 0 30 30 0 41 41 0 47 47 0 54 54 0 73 73 0 61 61 0 96 96 0 109 109 0 73 73 0 109 109 0 96 96 0 61 61 0 73 73 0 54 54 0 47 47 0 41 41 0 30 30 0 27 27 0 20 20 0 12 12 0 4 4 0 4 4 0 10 10 0 1 1 0 0 0 0 11 11 0 4 4 0 3 3 0 12 12 0 23 23 0 25 25 0 26 26 0 42 42 0 
60 60 0 27 27 0 38 38 0 28 28 0 21 21 0 10 10 0 2 2 0 1 1 0 5 5 0 22 22 0 23 23 0 6 6 0 2 2 0 1 1 0 8 8 0 20 20 0 30 30 0 42 42 0 28 28 0 56 56 0 83 83 0 123 123 0 115 115 0 142 142 0 148 148 0 112 112 0 148 148 0 142 142 0 115 115 0 123 123 0 83 83 0 56 56 0 28 28 0 42 42 0 30 30 0 20 20 0 8 8 0 1 1 0 2 2 0 6 6 0 23 23 0 22 22 0 5 5 0 1 1 0 2 2 0 10 10 0 21 21 0 28 28 0 38 38 0 27 27 0 
63 63 0 33 33 0 27 27 0 36 36 0 23 23 0 10 10 0 12 12 0 2 2 0 4 4 0 18 18 0 18 18 0 7 7 0 3 3 0 11 11 0 9 9 0 26 26 0 41 41 0 28 28 0 36 36 0 64 64 0 112 112 0 88 88 0 137 137 0 110 110 0 109 109 0 148 148 0 109 109 0 110 110 0 137 137 0 88 88 0 112 112 0 64 64 0 36 36 0 28 28 0 41 41 0 26 26 0 9 9 0 11 11 0 3 3 0 7 7 0 18 18 0 18 18 0 4 4 0 2 2 0 12 12 0 10 10 0 23 23 0 36 36 0 27 27 0 33 33 0 
65 65 0 55 55 0 49 49 0 48 48 0 43 43 0 19 19 0 18 18 0 11 11 0 12 12 0 25 25 0 26 26 0 16 16 0 12 12 0 16 16 0 20 20 0 44 44 0 47 47 0 56 56 0 64 64 0 65 65 0 101 101 0 117 117 0 117 117 0 122 122 0 189 189 0 194 194 0 189 189 0 122 122 0 117 117 0 117 117 0 101 101 0 65 65 0 64 64 0 56 56 0 47 47 0 44 44 0 20 20 0 16 16 0 12 12 0 16 16 0 26 26 0 25 25 0 12 12 0 11 11 0 18 18 0 19 19 0 43 43 0 48 48 0 49 49 0 55 55 0 
105 105 0 104 104 0 69 69 0 53 53 0 59 59 0 17 17 0 3 3 0 24 24 0 7 7 0 12 12 0 10 10 0 9 9 0 28 28 0 3 3 0 16 16 0 60 60 0 54 54 0 83 83 0 112 112 0 101 101 0 87 87 0 153 153 0 181 181 0 139 139 0 148 148 0 131 131 0 148 148 0 139 139 0 181 181 0 153 153 0 87 87 0 101 101 0 112 112 0 83 83 0 54 54 0 60 60 0 16 16 0 3 3 0 28 28 0 9 9 0 10 10 0 12 12 0 7 7 0 24 24 0 3 3 0 17 17 0 59 59 0 53 53 0 69 69 0 104 104 0 
118 118 0 85 85 0 108 108 0 68 68 0 62 62 0 21 21 0 4 4 0 9 9 0 17 17 0 21 21 0 23 23 0 22 22 0 13 13 0 5 5 0 20 20 0 59 59 0 73 73 0 123 123 0 88 88 0 117 117 0 153 153 0 201 201 0 179 179 0 114 114 0 112 112 0 116 116 0 112 112 0 114 114 0 179 179 0 201 201 0 153 153 0 117 117 0 88 88 0 123 123 0 73 73 0 59 59 0 20 20 0 5 5 0 13 13 0 22 22 0 23 23 0 21 21 0 17 17 0 9 9 0 4 4 0 21 21 0 62 62 0 68 68 0 108 108 0 85 85 0 
105 105 0 130 130 0 105 105 0 59 59 0 30 30 0 46 46 0 3 3 0 7 7 0 12 12 0 34 34 0 37 37 0 16 16 0 8 8 0 4 4 0 49 49 0 28 28 0 61 61 0 115 115 0 137 137 0 117 117 0 181 181 0 179 179 0 134 134 0 78 78 0 72 72 0 118 118 0 72 72 0 78 78 0 134 134 0 179 179 0 181 181 0 117 117 0 137 137 0 115 115 0 61 61 0 28 28 0 49 49 0 4 4 0 8 8 0 16 16 0 37 37 0 34 34 0 12 12 0 7 7 0 3 3 0 46 46 0 30 30 0 59 59 0 105 105 0 130 130 0 
115 115 0 104 104 0 131 131 0 91 91 0 63 63 0 31 31 0 11 11 0 17 17 0 16 16 0 14 14 0 15 15 0 19 19 0 22 22 0 16 16 0 32 32 0 61 61 0 96 96 0 142 142 0 110 110 0 122 122 0 139 139 0 114 114 0 78 78 0 63 63 0 77 77 0 81 81 0 77 77 0 63 63 0 78 78 0 114 114 0 139 139 0 122 122 0 110 110 0 142 142 0 96 96 0 61 61 0 32 32 0 16 16 0 22 22 0 19 19 0 15 15 0 14 14 0 16 16 0 17 17 0 11 11 0 31 31 0 63 63 0 91 91 0 131 131 0 104 104 0 
173 173 0 102 102 0 142 142 0 101 101 0 50 50 0 27 27 0 12 12 0 12 12 0 21 21 0 14 14 0 16 16 0 24 24 0 17 17 0 18 18 0 26 26 0 49 49 0 109 109 0 148 148 0 109 109 0 189 189 0 148 148 0 112 112 0 72 72 0 77 77 0 108 108 0 149 149 0 108 108 0 77 77 0 72 72 0 112 112 0 148 148 0 189 189 0 109 109 0 148 148 0 109 109 0 49 49 0 26 26 0 18 18 0 17 17 0 24 24 0 16 16 0 14 14 0 21 21 0 12 12 0 12 12 0 27 27 0 50 50 0 101 101 0 142 142 0 102 102 0 
180 180 0 141 141 0 106 106 0 68 68 0 29 29 0 37 37 0 5 5 0 9 9 0 14 14 0 39 39 0 42 42 0 19 19 0 10 10 0 4 4 0 39 39 0 31 31 0 73 73 0 112 112 0 148 148 0 194 194 0 131 131 0 116 116 0 118 118 0 81 81 0 149 149 0 254 255 0 149 149 0 81 81 0 118 118 0 116 116 0 131 131 0 194 194 0 148 148 0 112 112 0 73 73 0 31 31 0 39 39 0 4 4 0 10 10 0 19 19 0 42 42 0 39 39 0 14 14 0 9 9 0 5 5 0 37 37 0 29 29 0 68 68 0 106 106 0 141 141 0 
173 173 0 102 102 0 142 142 0 101 101 0 50 50 0 27 27 0 12 12 0 12 12 0 21 21 0 14 14 0 16 16 0 24 24 0 17 17 0 18 18 0 26 26 0 49 49 0 109 109 0 148 148 0 109 109 0 189 189 0 148 148 0 112 112 0 72 72 0 77 77 0 108 108 0 149 149 0 108 108 0 77 77 0 72 72 0 112 112 0 148 148 0 189 189 0 109 109 0 148 148 0 109 109 0 49 49 0 26 26 0 18 18 0 17 17 0 24 24 0 16 16 0 14 14 0 21 21 0 12 12 0 12 12 0 27 27 0 50 50 0 101 101 0 142 142 0 102 102 0 
115 115 0 104 104 0 131 131 0 91 91 0 63 63 0 31 31 0 11 11 0 17 17 0 16 16 0 14 14 0 15 15 0 19 19 0 22 22 0 16 16 0 32 32 0 61 61 0 96 96 0 142 142 0 110 110 0 122 122 0 139 139 0 114 114 0 78 78 0 63 63 0 77 77 0 81 81 0 77 77 0 63 63 0 78 78 0 114 114 0 139 139 0 122 122 0 110 110 0 142 142 0 96 96 0 61 61 0 32 32 0 16 16 0 22 22 0 19 19 0 15 15 0 14 14 0 16 16 0 17 17 0 11 11 0 31 31 0 63 63 0 91 91 0 131 131 0 104 104 0 
105 105 0 130 130 0 105 105 0 59 59 0 30 30 0 46 46 0 3 3 0 7 7 0 12 12 0 34 34 0 37 37 0 16 16 0 8 8 0 4 4 0 49 49 0 28 28 0 61 61 0 115 115 0 137 137 0 117 117 0 181 181 0 179 179 0 134 134 0 78 78 0 72 72 0 118 118 0 72 72 0 78 78 0 134 134 0 179 179 0 181 181 0 117 117 0 137 137 0 115 115 0 61 61 0 28 28 0 49 49 0 4 4 0 8 8 0 16 16 0 37 37 0 34 34 0 12 12 0 7 7 0 3 3 0 46 46 0 30 30 0 59 59 0 105 105 0 130 130 0 
118 118 0 85 85 0 108 108 0 68 68 0 62 62 0 21 21 0 4 4 0 9 9 0 17 17 0 21 21 0 23 23 0 22 22 0 13 13 0 5 5 0 20 20 0 59 59 0 73 73 0 123 123 0 88 88 0 117 117 0 153 153 0 201 201 0 179 179 0 114 114 0 112 112 0 116 116 0 112 112 0 114 114 0 179 179 0 201 201 0 153 153 0 117 117 0 88 88 0 123 123 0 73 73 0 59 59 0 20 20 0 5 5 0 13 13 0 22 22 0 23 23 0 21 21 0 17 17 0 9 9 0 4 4 0 21 21 0 62 62 0 68 68 0 108 108 0 85 85 0 
105 105 0 104 104 0 69 69 0 53 53 0 59 59 0 17 17 0 3 3 0 24 24 0 7 7 0 12 12 0 10 10 0 9 9 0 28 28 0 3 3 0 16 16 0 60 60 0 54 54 0 83 83 0 112 112 0 101 101 0 87 87 0 153 153 0 181 181 0 139 139 0 148 148 0 131 131 0 148 148 0 139 139 0 181 181 0 153 153 0 87 87 0 101 101 0 112 112 0 83 83 0 54 54 0 60 60 0 16 16 0 3 3 0 28 28 0 9 9 0 10 10 0 12 12 0 7 7 0 24 24 0 3 3 0 17 17 0 59 59 0 53 53 0 69 69 0 104 104 0 
65 65 0 55 55 0 49 49 0 48 48 0 43 43 0 19 19 0 18 18 0 11 11 0 12 12 0 25 25 0 26 26 0 16 16 0 12 12 0 16 16 0 20 20 0 44 44 0 47 47 0 56 56 0 64 64 0 65 65 0 101 101 0 117 117 0 117 117 0 122 122 0 189 189 0 194 194 0 189 189 0 122 122 0 117 117 0 117 117 0 101 101 0 65 65 0 64 64 0 56 56 0 47 47 0 44 44 0 20 20 0 16 16 0 12 12 0 16 16 0 26 26 0 25 25 0 12 12 0 11 11 0 18 18 0 19 19 0 43 43 0 48 48 0 49 49 0 55 55 0 
63 63 0 33 33 0 27 27 0 36 36 0 23 23 0 10 10 0 12 12 0 2 2 0 4 4 0 18 18 0 18 18 0 7 7 0 3 3 0 11 11 0 9 9 0 26 26 0 41 41 0 28 28 0 36 36 0 64 64 0 112 112 0 88 88 0 137 137 0 110 110 0 109 109 0 148 148 0 109 109 0 110 110 0 137 137 0 88 88 0 112 112 0 64 64 0 36 36 0 28 28 0 41 41 0 26 26 0 9 9 0 11 11 0 3 3 0 7 7 0 18 18 0 18 18 0 4 4 0 2 2 0 12 12 0 10 10 0 23 23 0 36 36 0 27 27 0 33 33 0 
60 60 0 27 27 0 38 38 0 28 28 0 21 21 0 10 10 0 2 2 0 1 1 0 5 5 0 22 22 0 23 23 0 6 6 0 2 2 0 1 1 0 8 8 0 20 20 0 30 30 0 42 42 0 28 28 0 56 56 0 83 83 0 123 123 0 115 115 0 142 142 0 148 148 0 112 112 0 148 148 0 142 142 0 115 115 0 123 123 0 83 83 0 56 56 0 28 28 0 42 42 0 30 30 0 20 20 0 8 8 0 1 1 0 2 2 0 6 6 0 23 23 0 22 22 0 5 5 0 1 1 0 2 2 0 10 10 0 21 21 0 28 28 0 38 38 0 27 27 0 
48 48 0 42 42 0 26 26 0 25 25 0 23 23 0 12 12 0 3 3 0 4 4 0 11 11 0 0 0 0 1 1 0 10 10 0 4 4 0 4 4 0 12 12 0 20 20 0 27 27 0 30 30 0 41 41 0 47 47 0 54 54 0 73 73 0 61 61 0 96 96 0 109 109 0 73 73 0 109 109 0 96 96 0 61 61 0 73 73 0 54 54 0 47 47 0 41 41 0 30 30 0 27 27 0 20 20 0 12 12 0 4 4 0 4 4 0 10 10 0 1 1 0 0 0 0 11 11 0 4 4 0 3 3 0 12 12 0 23 23 0 25 25 0 26 26 0 42 42 0 
40 40 0 23 23 0 19 19 0 19 19 0 28 28 0 20 20 0 8 8 0 2 2 0 5 5 0 13 13 0 14 14 0 7 7 0 3 3 0 6 6 0 19 19 0 30 30 0 20 20 0 20 20 0 26 26 0 44 44 0 60 60 0 59 59 0 28 28 0 61 61 0 49 49 0 31 31 0 49 49 0 61 61 0 28 28 0 59 59 0 60 60 0 44 44 0 26 26 0 20 20 0 20 20 0 30 30 0 19 19 0 6 6 0 3 3 0 7 7 0 14 14 0 13 13 0 5 5 0 2 2 0 8 8 0 20 20 0 28 28 0 19 19 0 19 19 0 23 23 0 
19 19 0 8 8 0 8 8 0 12 12 0 15 15 0 5 5 0 16 16 0 3 3 0 3 3 0 18 18 0 18 18 0 6 6 0 3 3 0 14 14 0 5 5 0 19 19 0 12 12 0 8 8 0 9 9 0 20 20 0 16 16 0 20 20 0 49 49 0 32 32 0 26 26 0 39 39 0 26 26 0 32 32 0 49 49 0 20 20 0 16 16 0 20 20 0 9 9 0 8 8 0 12 12 0 19 19 0 5 5 0 14 14 0 3 3 0 6 6 0 18 18 0 18 18 0 3 3 0 3 3 0 16 16 0 5 5 0 15 15 0 12 12 0 8 8 0 8 8 0 
14 14 0 11 11 0 1 1 0 3 3 0 5 5 0 14 14 0 2 2 0 1 1 0 1 1 0 7 7 0 8 8 0 2 2 0 1 1 0 2 2 0 14 14 0 6 6 0 4 4 0 1 1 0 11 11 0 16 16 0 3 3 0 5 5 0 4 4 0 16 16 0 18 18 0 4 4 0 18 18 0 16 16 0 4 4 0 5 5 0 3 3 0 16 16 0 11 11 0 1 1 0 4 4 0 6 6 0 14 14 0 2 2 0 1 1 0 2 2 0 8 8 0 7 7 0 1 1 0 1 1 0 2 2 0 14 14 0 5 5 0 3 3 0 1 1 0 11 11 0 
13 13 0 3 3 0 3 3 0 4 4 0 5 5 0 2 2 0 1 1 0 3 3 0 2 2 0 0 0 0 1 1 0 1 1 0 3 3 0 1 1 0 3 3 0 3 3 0 4 4 0 2 2 0 3 3 0 12 12 0 28 28 0 13 13 0 8 8 0 22 22 0 17 17 0 10 10 0 17 17 0 22 22 0 8 8 0 13 13 0 28 28 0 12 12 0 3 3 0 2 2 0 4 4 0 3 3 0 3 3 0 1 1 0 3 3 0 1 1 0 1 1 0 0 0 0 2 2 0 3 3 0 1 1 0 2 2 0 5 5 0 4 4 0 3 3 0 3 3 0 
16 16 0 10 10 0 9 9 0 9 9 0 7 7 0 7 7 0 4 4 0 2 2 0 4 4 0 3 3 0 4 4 0 6 6 0 1 1 0 2 2 0 6 6 0 7 7 0 10 10 0 6 6 0 7 7 0 16 16 0 9 9 0 22 22 0 16 16 0 19 19 0 24 24 0 19 19 0 24 24 0 19 19 0 16 16 0 22 22 0 9 9 0 16 16 0 7 7 0 6 6 0 10 10 0 7 7 0 6 6 0 2 2 0 1 1 0 6 6 0 4 4 0 3 3 0 4 4 0 2 2 0 4 4 0 7 7 0 7 7 0 9 9 0 9 9 0 10 10 0 
23 23 0 17 17 0 25 25 0 2 2 0 10 10 0 17 17 0 9 9 0 2 2 0 3 3 0 5 5 0 6 6 0 4 4 0 1 1 0 8 8 0 18 18 0 14 14 0 1 1 0 23 23 0 18 18 0 26 26 0 10 10 0 23 23 0 37 37 0 15 15 0 16 16 0 42 42 0 16 16 0 15 15 0 37 37 0 23 23 0 10 10 0 26 26 0 18 18 0 23 23 0 1 1 0 14 14 0 18 18 0 8 8 0 1 1 0 4 4 0 6 6 0 5 5 0 3 3 0 2 2 0 9 9 0 17 17 0 10 10 0 2 2 0 25 25 0 17 17 0 
20 20 0 14 14 0 23 23 0 0 0 0 9 9 0 15 15 0 8 8 0 1 1 0 2 2 0 4 4 0 5 5 0 3 3 0 0 0 0 7 7 0 18 18 0 13 13 0 0 0 0 22 22 0 18 18 0 25 25 0 12 12 0 21 21 0 34 34 0 14 14 0 14 14 0 39 39 0 14 14 0 14 14 0 34 34 0 21 21 0 12 12 0 25 25 0 18 18 0 22 22 0 0 0 0 13 13 0 18 18 0 7 7 0 0 0 0 3 3 0 5 5 0 4 4 0 2 2 0 1 1 0 8 8 0 15 15 0 9 9 0 0 0 0 23 23 0 14 14 0 
5 5 0 5 5 0 3 3 0 6 6 0 3 3 0 3 3 0 2 2 0 2 2 0 3 3 0 2 2 0 3 3 0 4 4 0 2 2 0 1 1 0 3 3 0 5 5 0 11 11 0 5 5 0 4 4 0 12 12 0 7 7 0 17 17 0 12 12 0 16 16 0 21 21 0 14 14 0 21 21 0 16 16 0 12 12 0 17 17 0 7 7 0 12 12 0 4 4 0 5 5 0 11 11 0 5 5 0 3 3 0 1 1 0 2 2 0 4 4 0 3 3 0 2 2 0 3 3 0 2 2 0 2 2 0 3 3 0 3 3 0 6 6 0 3 3 0 5 5 0 
7 7 0 1 1 0 0 0 0 4 4 0 1 1 0 2 2 0 0 0 0 6 6 0 2 2 0 1 1 0 2 2 0 2 2 0 3 3 0 1 1 0 3 3 0 2 2 0 4 4 0 1 1 0 2 2 0 11 11 0 24 24 0 9 9 0 7 7 0 17 17 0 12 12 0 9 9 0 12 12 0 17 17 0 7 7 0 9 9 0 24 24 0 11 11 0 2 2 0 1 1 0 4 4 0 2 2 0 3 3 0 1 1 0 3 3 0 2 2 0 2 2 0 1 1 0 2 2 0 6 6 0 0 0 0 2 2 0 1 1 0 4 4 0 0 0 0 1 1 0 
17 17 0 16 16 0 5 5 0 0 0 0 7 7 0 20 20 0 5 5 0 0 0 0 2 2 0 8 8 0 9 9 0 4 4 0 1 1 0 2 2 0 16 16 0 8 8 0 3 3 0 2 2 0 12 12 0 18 18 0 3 3 0 4 4 0 3 3 0 11 11 0 12 12 0 5 5 0 12 12 0 11 11 0 3 3 0 4 4 0 3 3 0 18 18 0 12 12 0 2 2 0 3 3 0 8 8 0 16 16 0 2 2 0 1 1 0 4 4 0 9 9 0 8 8 0 2 2 0 0 0 0 5 5 0 20 20 0 7 7 0 0 0 0 5 5 0 16 16 0 
16 16 0 13 13 0 15 15 0 9 9 0 16 16 0 4 4 0 20 20 0 2 2 0 3 3 0 15 15 0 17 17 0 7 7 0 2 2 0 14 14 0 5 5 0 20 20 0 12 12 0 10 10 0 10 10 0 19 19 0 17 17 0 21 21 0 46 46 0 31 31 0 27 27 0 37 37 0 27 27 0 31 31 0 46 46 0 21 21 0 17 17 0 19 19 0 10 10 0 10 10 0 12 12 0 20 20 0 5 5 0 14 14 0 2 2 0 7 7 0 17 17 0 15 15 0 3 3 0 2 2 0 20 20 0 4 4 0 16 16 0 9 9 0 15 15 0 13 13 0 
39 39 0 17 17 0 17 17 0 18 18 0 23 23 0 16 16 0 7 7 0 1 1 0 3 3 0 9 9 0 10 10 0 7 7 0 5 5 0 5 5 0 15 15 0 28 28 0 23 23 0 21 21 0 23 23 0 43 43 0 59 59 0 62 62 0 30 30 0 63 63 0 50 50 0 29 29 0 50 50 0 63 63 0 30 30 0 62 62 0 59 59 0 43 43 0 23 23 0 21 21 0 23 23 0 28 28 0 15 15 0 5 5 0 5 5 0 7 7 0 10 10 0 9 9 0 3 3 0 1 1 0 7 7 0 16 16 0 23 23 0 18 18 0 17 17 0 17 17 0 
48 48 0 28 28 0 14 14 0 17 17 0 18 18 0 9 9 0 0 0 0 4 4 0 6 6 0 0 0 0 2 2 0 9 9 0 4 4 0 3 3 0 12 12 0 19 19 0 25 25 0 28 28 0 36 36 0 48 48 0 53 53 0 68 68 0 59 59 0 91 91 0 101 101 0 68 68 0 101 101 0 91 91 0 59 59 0 68 68 0 53 53 0 48 48 0 36 36 0 28 28 0 25 25 0 19 19 0 12 12 0 3 3 0 4 4 0 9 9 0 2 2 0 0 0 0 6 6 0 4 4 0 0 0 0 9 9 0 18 18 0 17 17 0 14 14 0 28 28 0 
44 44 0 23 23 0 18 18 0 14 14 0 17 17 0 15 15 0 5 5 0 0 0 0 3 3 0 23 23 0 25 25 0 9 9 0 3 3 0 1 1 0 8 8 0 19 19 0 26 26 0 38 38 0 27 27 0 49 49 0 69 69 0 108 108 0 105 105 0 131 131 0 142 142 0 106 106 0 142 142 0 131 131 0 105 105 0 108 108 0 69 69 0 49 49 0 27 27 0 38 38 0 26 26 0 19 19 0 8 8 0 1 1 0 3 3 0 9 9 0 25 25 0 23 23 0 3 3 0 0 0 0 5 5 0 15 15 0 17 17 0 14 14 0 18 18 0 23 23 0 
37 37 0 33 33 0 23 23 0 28 28 0 17 17 0 13 13 0 16 16 0 1 1 0 5 5 0 14 14 0 17 17 0 10 10 0 3 3 0 11 11 0 8 8 0 23 23 0 42 42 0 27 27 0 33 33 0 55 55 0 104 104 0 85 85 0 130 130 0 104 104 0 102 102 0 141 141 0 102 102 0 104 104 0 130 130 0 85 85 0 104 104 0 55 55 0 33 33 0 27 27 0 42 42 0 23 23 0 8 8 0 11 11 0 3 3 0 10 10 0 17 17 0 14 14 0 5 5 0 1 1 0 16 16 0 13 13 0 17 17 0 28 28 0 23 23 0 33 33 0 
